PathFileType	4	(x/y/z)	S04_BK_Cal.trc
DataRate	CameraRate	NumFrames	NumMarkers	Units	OrigDataRate	OrigDataStartFrame	OrigNumFrames
240	240	10	51	mm	240	901	2400
Frame#	Time	Sternum			R.Acromium			L.Acromium			Top.Head			R.ASIS			L.ASIS			R.PSIS			L.PSIS			R.Great.Tro			L.Great.Tro			R.Iliac.Crest			L.Iliac.Crest			V.Sacral			R.Thigh.Upper.Post			R.Thigh.Lower.Ant			R.Thigh.Lower.Post			R.Thigh.Upper.Ant			R.Knee.Lat			R.Knee.Med			R.Shank.Upper.Post			R.Shank.Lower.Ant			R.Shank.Lower.Post			R.Shank.Upper.Ant			R.Ankle.Lat			R.Ankle.Med			R.Heel.Upper			R.Heel.Med			R.Heel.Lat			R.Toe.Lat			R.Toe.Med			R.Toe.Tip			L.Thigh.Upper.Post			L.Thigh.Lower.Ant			L.Thigh.Lower.Post			L.Thigh.Upper.Ant			L.Knee.Lat			L.Knee.Med			L.Shank.Upper.Post			L.Shank.Lower.Ant			L.Shank.Lower.Post			L.Shank.Upper.Ant			L.Ankle.Lat			L.Ankle.Med			L.Heel.Upper			L.Heel.Med			L.Heel.Lat			L.Toe.Lat			L.Toe.Med			L.Toe.Tip			Cervical.Spine			Back			
		X1	Y1	Z1	X2	Y2	Z2	X3	Y3	Z3	X4	Y4	Z4	X5	Y5	Z5	X6	Y6	Z6	X7	Y7	Z7	X8	Y8	Z8	X9	Y9	Z9	X10	Y10	Z10	X11	Y11	Z11	X12	Y12	Z12	X13	Y13	Z13	X14	Y14	Z14	X15	Y15	Z15	X16	Y16	Z16	X17	Y17	Z17	X18	Y18	Z18	X19	Y19	Z19	X20	Y20	Z20	X21	Y21	Z21	X22	Y22	Z22	X23	Y23	Z23	X24	Y24	Z24	X25	Y25	Z25	X26	Y26	Z26	X27	Y27	Z27	X28	Y28	Z28	X29	Y29	Z29	X30	Y30	Z30	X31	Y31	Z31	X32	Y32	Z32	X33	Y33	Z33	X34	Y34	Z34	X35	Y35	Z35	X36	Y36	Z36	X37	Y37	Z37	X38	Y38	Z38	X39	Y39	Z39	X40	Y40	Z40	X41	Y41	Z41	X42	Y42	Z42	X43	Y43	Z43	X44	Y44	Z44	X45	Y45	Z45	X46	Y46	Z46	X47	Y47	Z47	X48	Y48	Z48	X49	Y49	Z49	X50	Y50	Z50	X51	Y51	Z51	

901	3.75	345.62	1221.1	295.14	223.49	1451.4	475.98	201.22	1441.1	130.14	222.17	1771.2	293.29	313.94	937.28	434.72	313.74	951.78	186.31	100.88	977.7	336.86	107.46	980.94	253.89	226.52	865.23	501.65	201.38	869.85	117.02	235.18	1031.1	476.63	217.31	1036	140.12	82.823	937.59	295.41	301.4	615.4	514.61	401.86	561.15	492.14	331.73	529.8	503.47	372.73	667.57	505.11	370.53	470.23	497.18	358.84	459.04	369.62	230.68	287.02	505.86	264.62	188.06	464.12	205.76	221.13	493.03	288.3	254.87	485.81	166.75	110.52	478.28	190.68	115.74	388.97	97.937	75.9	421.46	108.18	45.037	392.29	98.552	44.607	456.86	263.71	39.763	519.31	311.37	39.493	402.94	369.36	56.044	457.13	258.46	635.48	106.15	367.53	573.56	90.93	299.14	555.33	108.09	322.86	652.67	87.922	364.7	479.24	101.14	380.26	456.62	224.88	229.55	342.9	94.078	266.01	238.23	87.147	209.34	267.6	95.205	286.17	312.05	84.441	178.63	105.25	97.907	186.95	111.24	192.13	101.52	73.383	141.51	108.71	47.583	174.94	105.26	46.433	113.03	288.03	42.618	69.696	321.66	47.837	184.71	377.84	57.015	134	169.93	1494.6	307.53	89.043	1239.4	290.04
902	3.7542	345.62	1221.1	295.12	223.49	1451.4	475.96	201.22	1441.1	130.11	222.14	1771.2	293.27	313.94	937.29	434.7	313.74	951.79	186.29	100.87	977.71	336.83	107.46	980.95	253.86	226.51	865.23	501.63	201.38	869.85	117	235.18	1031.1	476.61	217.32	1036	140.1	82.819	937.6	295.39	301.39	615.41	514.6	401.84	561.16	492.13	331.71	529.81	503.46	372.72	667.58	505.1	370.51	470.23	497.18	358.84	459.05	369.62	230.68	287.02	505.85	264.62	188.07	464.12	205.76	221.13	493.03	288.3	254.87	485.81	166.75	110.52	478.28	190.68	115.74	388.97	97.938	75.902	421.46	108.17	45.045	392.28	98.553	44.608	456.85	263.71	39.763	519.31	311.37	39.492	402.94	369.36	56.042	457.13	258.45	635.48	106.14	367.53	573.56	90.921	299.13	555.33	108.08	322.85	652.67	87.91	364.7	479.24	101.14	380.23	456.6	224.87	229.55	342.9	94.071	266.01	238.23	87.143	209.34	267.6	95.2	286.17	312.05	84.438	178.63	105.25	97.905	186.95	111.24	192.12	101.52	73.379	141.51	108.71	47.582	174.94	105.26	46.431	113.03	288.03	42.617	69.696	321.66	47.836	184.71	377.84	57.016	134	169.93	1494.6	307.51	89.046	1239.4	290.01
903	3.7583	345.62	1221.1	295.1	223.49	1451.4	475.94	201.23	1441.1	130.09	222.12	1771.2	293.25	313.93	937.29	434.68	313.75	951.79	186.27	100.87	977.72	336.81	107.46	980.95	253.84	226.5	865.24	501.61	201.38	869.86	116.98	235.17	1031.1	476.59	217.32	1036.1	140.07	82.814	937.61	295.37	301.37	615.43	514.59	401.83	561.16	492.13	331.7	529.82	503.45	372.7	667.58	505.09	370.5	470.24	497.17	358.83	459.05	369.62	230.67	287.03	505.85	264.62	188.07	464.12	205.75	221.14	493.02	288.29	254.88	485.81	166.76	110.52	478.28	190.68	115.74	388.97	97.938	75.903	421.46	108.16	45.05	392.28	98.554	44.609	456.85	263.71	39.763	519.31	311.37	39.492	402.94	369.36	56.041	457.13	258.45	635.48	106.13	367.52	573.56	90.912	299.13	555.33	108.07	322.85	652.67	87.898	364.69	479.24	101.13	380.2	456.59	224.86	229.55	342.9	94.065	266.01	238.23	87.14	209.34	267.6	95.195	286.17	312.05	84.434	178.63	105.24	97.903	186.95	111.24	192.12	101.51	73.375	141.51	108.71	47.581	174.94	105.26	46.429	113.03	288.03	42.617	69.695	321.66	47.836	184.71	377.83	57.018	134	169.92	1494.6	307.49	89.048	1239.4	289.99
904	3.7625	345.61	1221.1	295.08	223.49	1451.4	475.91	201.23	1441.1	130.07	222.09	1771.2	293.24	313.92	937.3	434.66	313.75	951.8	186.25	100.87	977.72	336.78	107.46	980.96	253.81	226.49	865.25	501.59	201.38	869.87	116.96	235.17	1031.1	476.57	217.33	1036.1	140.05	82.808	937.62	295.35	301.36	615.44	514.58	401.82	561.17	492.12	331.68	529.83	503.45	372.69	667.59	505.07	370.49	470.24	497.16	358.82	459.06	369.61	230.66	287.03	505.85	264.61	188.08	464.12	205.74	221.14	493.02	288.28	254.89	485.81	166.76	110.52	478.28	190.68	115.74	388.97	97.938	75.903	421.46	108.16	45.053	392.28	98.554	44.61	456.85	263.71	39.764	519.31	311.37	39.492	402.94	369.36	56.04	457.13	258.44	635.48	106.12	367.52	573.56	90.904	299.12	555.33	108.07	322.84	652.67	87.886	364.68	479.24	101.13	380.18	456.58	224.85	229.54	342.9	94.06	266.01	238.23	87.138	209.33	267.59	95.19	286.17	312.05	84.431	178.64	105.24	97.902	186.95	111.24	192.12	101.51	73.371	141.51	108.71	47.58	174.94	105.26	46.426	113.03	288.03	42.616	69.695	321.66	47.836	184.71	377.83	57.02	134	169.92	1494.6	307.46	89.05	1239.4	289.96
905	3.7667	345.61	1221.1	295.06	223.49	1451.4	475.89	201.23	1441.1	130.04	222.07	1771.2	293.22	313.92	937.31	434.64	313.75	951.81	186.23	100.87	977.73	336.76	107.46	980.97	253.79	226.48	865.26	501.57	201.38	869.87	116.94	235.16	1031.1	476.54	217.33	1036.1	140.03	82.802	937.63	295.32	301.35	615.45	514.57	401.8	561.18	492.11	331.67	529.83	503.44	372.68	667.6	505.06	370.47	470.25	497.16	358.81	459.06	369.6	230.65	287.03	505.84	264.61	188.08	464.12	205.74	221.14	493.02	288.28	254.89	485.81	166.76	110.52	478.28	190.68	115.74	388.97	97.938	75.903	421.46	108.16	45.054	392.28	98.554	44.61	456.85	263.71	39.764	519.31	311.37	39.491	402.94	369.36	56.039	457.13	258.43	635.48	106.11	367.51	573.56	90.895	299.11	555.33	108.06	322.84	652.67	87.874	364.68	479.24	101.12	380.15	456.58	224.84	229.54	342.9	94.055	266	238.23	87.136	209.33	267.59	95.185	286.16	312.05	84.428	178.64	105.23	97.9	186.95	111.24	192.12	101.51	73.366	141.51	108.71	47.578	174.94	105.26	46.423	113.02	288.03	42.615	69.694	321.66	47.835	184.71	377.83	57.022	134	169.92	1494.6	307.44	89.052	1239.4	289.94
906	3.7708	345.61	1221.1	295.03	223.49	1451.4	475.87	201.24	1441.1	130.02	222.04	1771.2	293.2	313.91	937.31	434.62	313.74	951.81	186.21	100.86	977.74	336.73	107.45	980.98	253.76	226.47	865.26	501.55	201.38	869.88	116.92	235.16	1031.1	476.52	217.34	1036.1	140.01	82.794	937.64	295.29	301.33	615.46	514.56	401.79	561.18	492.1	331.65	529.84	503.43	372.67	667.6	505.05	370.46	470.26	497.15	358.8	459.07	369.6	230.64	287.04	505.84	264.6	188.09	464.12	205.73	221.15	493.01	288.27	254.9	485.8	166.76	110.52	478.28	190.68	115.74	388.97	97.938	75.902	421.46	108.17	45.053	392.28	98.554	44.61	456.85	263.71	39.765	519.31	311.37	39.491	402.94	369.36	56.039	457.13	258.43	635.49	106.1	367.5	573.56	90.887	299.1	555.34	108.05	322.83	652.67	87.862	364.67	479.25	101.12	380.13	456.57	224.84	229.53	342.89	94.051	266	238.23	87.134	209.33	267.59	95.18	286.16	312.05	84.426	178.65	105.23	97.899	186.95	111.24	192.12	101.51	73.361	141.5	108.71	47.577	174.94	105.26	46.42	113.02	288.03	42.615	69.694	321.66	47.835	184.71	377.83	57.025	134	169.92	1494.6	307.42	89.054	1239.4	289.91
907	3.775	345.61	1221.1	295.01	223.49	1451.5	475.84	201.24	1441.1	129.99	222.02	1771.2	293.18	313.9	937.32	434.6	313.74	951.82	186.19	100.86	977.74	336.71	107.45	980.99	253.74	226.46	865.27	501.53	201.38	869.89	116.9	235.15	1031.1	476.5	217.34	1036.1	139.99	82.786	937.65	295.27	301.32	615.47	514.55	401.77	561.19	492.09	331.63	529.85	503.42	372.65	667.61	505.04	370.44	470.26	497.14	358.79	459.07	369.59	230.63	287.04	505.83	264.6	188.09	464.12	205.72	221.15	493.01	288.26	254.91	485.8	166.76	110.52	478.28	190.68	115.74	388.97	97.938	75.901	421.46	108.17	45.051	392.28	98.554	44.61	456.85	263.71	39.765	519.31	311.37	39.491	402.94	369.36	56.039	457.13	258.42	635.49	106.09	367.49	573.56	90.879	299.09	555.34	108.05	322.82	652.67	87.85	364.66	479.25	101.11	380.11	456.57	224.84	229.53	342.89	94.047	266	238.23	87.132	209.32	267.59	95.175	286.15	312.05	84.423	178.66	105.22	97.898	186.95	111.24	192.11	101.5	73.357	141.5	108.71	47.576	174.94	105.26	46.417	113.02	288.03	42.614	69.694	321.66	47.834	184.71	377.83	57.027	134	169.92	1494.6	307.39	89.056	1239.4	289.89
908	3.7792	345.61	1221.1	294.99	223.49	1451.5	475.82	201.24	1441.1	129.97	222	1771.2	293.16	313.89	937.32	434.58	313.74	951.83	186.17	100.85	977.75	336.68	107.45	981	253.71	226.45	865.28	501.5	201.38	869.9	116.88	235.14	1031.1	476.48	217.34	1036.1	139.97	82.777	937.66	295.24	301.3	615.49	514.54	401.76	561.19	492.08	331.62	529.86	503.42	372.64	667.61	505.02	370.43	470.27	497.13	358.78	459.07	369.58	230.62	287.05	505.83	264.59	188.1	464.11	205.71	221.15	493	288.25	254.91	485.8	166.76	110.52	478.28	190.69	115.74	388.97	97.937	75.899	421.46	108.18	45.048	392.29	98.554	44.61	456.85	263.71	39.766	519.31	311.37	39.491	402.94	369.36	56.039	457.13	258.41	635.49	106.08	367.48	573.56	90.872	299.08	555.34	108.04	322.81	652.67	87.838	364.65	479.25	101.11	380.09	456.57	224.83	229.52	342.88	94.044	265.99	238.23	87.13	209.32	267.59	95.171	286.15	312.05	84.421	178.66	105.21	97.897	186.95	111.24	192.11	101.5	73.352	141.5	108.71	47.575	174.94	105.25	46.414	113.02	288.03	42.614	69.694	321.66	47.833	184.71	377.83	57.03	134	169.92	1494.6	307.37	89.058	1239.4	289.86
909	3.7833	345.6	1221.1	294.97	223.49	1451.5	475.8	201.24	1441.1	129.94	221.98	1771.2	293.15	313.88	937.33	434.56	313.73	951.84	186.15	100.85	977.75	336.66	107.44	981.01	253.69	226.44	865.28	501.48	201.38	869.91	116.86	235.13	1031.1	476.46	217.34	1036.1	139.95	82.768	937.67	295.21	301.28	615.5	514.52	401.74	561.2	492.07	331.6	529.87	503.41	372.62	667.62	505	370.41	470.27	497.12	358.76	459.08	369.57	230.6	287.05	505.82	264.59	188.1	464.11	205.71	221.16	493	288.24	254.92	485.79	166.76	110.51	478.29	190.69	115.73	388.97	97.937	75.897	421.46	108.18	45.044	392.29	98.553	44.608	456.85	263.71	39.767	519.31	311.37	39.491	402.94	369.36	56.039	457.13	258.4	635.5	106.07	367.47	573.56	90.865	299.07	555.35	108.04	322.81	652.67	87.826	364.64	479.25	101.11	380.07	456.57	224.83	229.52	342.88	94.043	265.98	238.23	87.129	209.31	267.59	95.166	286.14	312.05	84.419	178.67	105.21	97.896	186.95	111.24	192.11	101.5	73.348	141.5	108.71	47.573	174.94	105.25	46.41	113.02	288.03	42.613	69.694	321.66	47.833	184.72	377.83	57.033	133.99	169.92	1494.6	307.35	89.059	1239.4	289.84
910	3.7875	345.6	1221.1	294.95	223.49	1451.5	475.77	201.25	1441.1	129.92	221.97	1771.2	293.13	313.86	937.34	434.54	313.73	951.84	186.14	100.84	977.76	336.64	107.44	981.02	253.66	226.42	865.29	501.46	201.38	869.91	116.84	235.13	1031.1	476.44	217.35	1036.1	139.93	82.759	937.68	295.18	301.27	615.51	514.51	401.72	561.2	492.06	331.58	529.87	503.39	372.61	667.62	504.99	370.4	470.28	497.11	358.75	459.08	369.57	230.59	287.05	505.82	264.58	188.11	464.11	205.7	221.16	492.99	288.23	254.93	485.79	166.76	110.51	478.29	190.69	115.73	388.97	97.936	75.894	421.46	108.19	45.039	392.3	98.552	44.607	456.85	263.71	39.768	519.31	311.37	39.492	402.94	369.36	56.04	457.13	258.39	635.5	106.06	367.46	573.56	90.858	299.06	555.35	108.03	322.8	652.67	87.813	364.62	479.25	101.1	380.05	456.57	224.83	229.51	342.87	94.042	265.98	238.22	87.128	209.31	267.59	95.163	286.14	312.05	84.417	178.68	105.2	97.896	186.95	111.24	192.1	101.5	73.344	141.5	108.71	47.572	174.94	105.25	46.407	113.02	288.03	42.613	69.693	321.66	47.832	184.72	377.83	57.036	133.99	169.92	1494.6	307.32	89.061	1239.4	289.81
